#!OML:ASF I:\Actors\actors\Patient Classification 2\Patient 1\Session 1\actor1.ASF
:FULLY-SPECIFIED
:DEGREES
454
root -1.37453 18.6886 4.04555 22.8956 6.52083 -4.23949
lowerback 30.691 2.35965 -6.29001
upperback 2.30195 0.753097 -1.05067
thorax -13.532 0.662731 1.97008
lowerneck -14.3486 -0.389262 -1.09065
upperneck -5.85905 -0.290823 4.78596
head 0.572487 -0.02616 1.68949
rclavicle 3.97569e-015 -1.90833e-014
rhumerus 48.4225 51.8681 -64.9257
rradius 141.539
rwrist 8.21978
rhand -37.8202 -21.8005
rfingers 7.12502
rthumb -10.8659 -51.4994
lclavicle 3.97569e-015 -1.90833e-014
lhumerus 55.6405 -47.4549 58.7296
lradius 144.133
lwrist 17.9477
lhand -22.9797 -53.715
lfingers 7.12502
lthumb 3.46271 -23.7634
rfemur -30.5861 -5.88403 23.1781
rtibia 15.8952
rfoot -17.4345 -10.5334
rtoes -1.78144
lfemur -41.5866 -6.02004 -1.63807
ltibia 28.9249
lfoot -13.1234 10.1527
ltoes -57.2025
455
root -1.37301 18.703 4.08791 22.8447 6.88504 -4.26747
lowerback 30.6451 2.28151 -6.35897
upperback 2.3587 0.596545 -1.33141
thorax -13.4301 0.587182 1.766
lowerneck -14.9405 -0.560891 -1.17144
upperneck -5.61194 -0.515926 5.24392
head 0.764927 -0.117395 1.84793
rclavicle 3.10104e-014 6.36111e-015
rhumerus 48.9066 51.8302 -64.4754
rradius 141.835
rwrist 7.26512
rhand -37.5886 -21.7507
rfingers 7.12502
rthumb -10.6424 -51.4612
lclavicle 3.10104e-014 6.36111e-015
lhumerus 56.1089 -47.3132 58.2359
lradius 144.388
lwrist 19.7991
lhand -23.1131 -53.2571
lfingers 7.12502
lthumb 3.33385 -23.3034
rfemur -29.8989 -6.09183 23.2798
rtibia 14.949
rfoot -17.2418 -10.838
rtoes -1.62382
lfemur -41.3826 -6.65685 -1.35218
ltibia 28.6428
lfoot -13.1763 10.5466
ltoes -57.169
456
root -1.36276 18.7156 4.13939 22.8526 6.82643 -4.44818
lowerback 30.3998 2.3859 -6.54384
upperback 2.21449 0.648835 -1.5497
thorax -13.4885 0.618994 1.61173
lowerneck -14.7449 -0.717586 -1.54265
upperneck -5.60183 -0.666548 5.69825
head 0.750064 -0.18017 2.05557
rclavicle -7.15625e-015 -8.74653e-015
rhumerus 48.7418 51.9852 -64.4571
rradius 142.188
rwrist 5.67586
rhand -37.1191 -21.4545
rfingers 7.12502
rthumb -10.1895 -51.1877
lclavicle -7.15625e-015 -8.74653e-015
lhumerus 55.9748 -47.2072 58.5222
lradius 144.522
lwrist 21.8121
lhand -23.1352 -52.8302
lfingers 7.12502
lthumb 3.31249 -22.8761
rfemur -29.2992 -6.25979 23.532
rtibia 13.9514
rfoot -16.6505 -10.8878
rtoes -1.90633
lfemur -41.0646 -6.928 -1.07727
ltibia 28.3633
lfoot -13.2875 11.0421
ltoes -57.2694
457
root -1.36202 18.7287 4.18135 22.8557 7.14921 -4.45702
lowerback 30.3822 2.3539 -6.75278
upperback 2.05729 0.511174 -1.6917
thorax -13.6493 0.573303 1.62261
lowerneck -14.4416 -0.850147 -1.56691
upperneck -5.72995 -0.834036 5.96521
head 0.667535 -0.265499 2.13746
rclavicle -1.35174e-014 3.26007e-014
rhumerus 48.6688 52.0358 -64.4563
rradius 142.548
rwrist 3.58345
rhand -36.5731 -21.0947
rfingers 7.12502
rthumb -9.66281 -50.8531
lclavicle -1.35174e-014 3.26007e-014
lhumerus 55.8744 -46.7818 58.9865
lradius 144.55
lwrist 24.1479
lhand -23.2227 -52.119
lfingers 7.12502
lthumb 3.22808 -22.1637
rfemur -28.6636 -6.4407 23.6056
rtibia 12.9802
rfoot -16.3796 -11.1959
rtoes -1.95736
lfemur -40.9109 -7.40839 -0.878347
ltibia 28.0826
lfoot -13.3215 11.3685
ltoes -57.2851
458
root -1.36876 18.7443 4.23559 22.7239 7.47022 -4.58435
lowerback 30.354 2.3707 -6.98356
upperback 1.95906 0.441004 -1.77276
thorax -13.7426 0.557874 1.68527
lowerneck -14.3128 -0.961393 -1.63324
upperneck -5.71506 -0.972446 6.28911
head 0.661793 -0.329738 2.2498
rclavicle -3.10104e-014 2.3059e-014
rhumerus 48.5731 52.0431 -64.5171
rradius 142.927
rwrist 1.61041
rhand -35.8694 -20.923
rfingers 7.12502
rthumb -8.98375 -50.7117
lclavicle -3.10104e-014 2.3059e-014
lhumerus 55.6868 -46.4423 59.4922
lradius 144.713
lwrist 26.878
lhand -23.2742 -51.1108
lfingers 7.12502
lthumb 3.17834 -21.1548
rfemur -27.8122 -6.4671 23.7848
rtibia 11.9913
rfoot -16.2719 -11.5439
rtoes -1.77661
lfemur -40.5379 -7.67734 -0.64719
ltibia 27.7928
lfoot -13.3588 11.4544
ltoes -57.2735
459
root -1.37566 18.7596 4.28935 22.6435 7.78646 -4.66394
lowerback 30.2798 2.38759 -7.19708
upperback 1.86306 0.376436 -1.88483
thorax -13.813 0.542775 1.70364
lowerneck -14.3441 -1.09582 -1.725
upperneck -5.61355 -1.14219 6.69406
head 0.714983 -0.403543 2.39418
rclavicle 1.19271e-014 -1.90833e-014
rhumerus 48.3714 52.0044 -64.7
rradius 143.341
rwrist -0.360385
rhand -35.034 -20.6665
rfingers 7.12502
rthumb -8.17759 -50.4882
lclavicle 1.19271e-014 -1.90833e-014
lhumerus 55.4215 -46.1979 60.0431
lradius 145.016
lwrist 29.8555
lhand -23.3622 -49.9368
lfingers 7.12502
lthumb 3.09329 -19.9795
rfemur -27.0276 -6.46559 23.9034
rtibia 11.0239
rfoot -16.1894 -11.954
rtoes -1.85771
lfemur -40.2081 -7.89848 -0.48666
ltibia 27.4811
lfoot -13.3508 11.4995
ltoes -57.2451
460
root -1.38048 18.7742 4.34117 22.5978 8.04016 -4.65795
lowerback 30.1982 2.40457 -7.46911
upperback 1.74371 0.289341 -2.01106
thorax -13.9044 0.522045 1.74649
lowerneck -14.1603 -1.18899 -1.60504
upperneck -5.75663 -1.27625 6.8425
head 0.643958 -0.475945 2.41378
rclavicle -3.97569e-015 3.18055e-015
rhumerus 48.1661 52.1251 -64.9419
rradius 143.729
rwrist -2.47826
rhand -34.2035 -20.3596
rfingers 7.12502
rthumb -7.37597 -50.2111
lclavicle -3.97569e-015 3.18055e-015
lhumerus 55.0951 -45.9253 60.656
lradius 145.303
lwrist 32.801
lhand -23.4216 -48.8101
lfingers 7.12502
lthumb 3.03593 -18.852
rfemur -26.2613 -6.46342 23.9024
rtibia 10.003
rfoot -16.0333 -12.3762
rtoes -2.10384
lfemur -39.9113 -8.11714 -0.437526
ltibia 27.1741
lfoot -13.3384 11.567
ltoes -57.2411
461
root -1.38567 18.7871 4.39426 22.5424 8.19032 -4.7232
lowerback 30.0068 2.42933 -7.64839
upperback 1.65571 0.252372 -2.16252
thorax -13.9153 0.514388 1.69495
lowerneck -13.7856 -1.2979 -1.35663
upperneck -6.10207 -1.43826 6.84206
head 0.47208 -0.575172 2.35792
rclavicle 3.73715e-014 3.81667e-014
rhumerus 47.9938 52.2791 -65.2327
rradius 144.034
rwrist -4.48422
rhand -33.5186 -20.0083
rfingers 7.12502
rthumb -6.71485 -49.8818
lclavicle 3.73715e-014 3.81667e-014
lhumerus 54.8302 -45.6626 61.1477
lradius 145.667
lwrist 35.7326
lhand -23.6153 -47.4573
lfingers 7.12502
lthumb 2.84886 -17.4966
rfemur -25.5092 -6.53332 24.0368
rtibia 8.99563
rfoot -15.7296 -12.6366
rtoes -2.17996
lfemur -39.5658 -8.18035 -0.36658
ltibia 26.8893
lfoot -13.3403 11.5787
ltoes -57.2127
462
root -1.38805 18.7974 4.44107 22.4818 8.5116 -4.72057
lowerback 29.8754 2.38933 -7.48183
upperback 1.47806 0.212112 -2.47694
thorax -14.0611 0.48534 1.28124
lowerneck -12.9833 -1.49824 -1.14605
upperneck -6.45937 -1.70903 7.07863
head 0.235217 -0.734374 2.38485
rclavicle -4.77083e-015 1.90833e-014
rhumerus 47.1712 52.3063 -66.0868
rradius 144.313
rwrist -6.29248
rhand -32.9784 -19.4552
rfingers 7.12502
rthumb -6.19338 -49.3447
lclavicle -4.77083e-015 1.90833e-014
lhumerus 54.5646 -45.7487 61.5549
lradius 146.068
lwrist 38.7368
lhand -24.0174 -46.1298
lfingers 7.12502
lthumb 2.46052 -16.1643
rfemur -24.7277 -6.79495 24.1598
rtibia 7.92687
rfoot -15.4382 -12.8954
rtoes -1.95827
lfemur -39.3154 -8.45936 -0.294637
ltibia 26.6257
lfoot -13.3055 11.6569
ltoes -57.2396
